<svg width="256" height="256" viewBox="0 0 256 256" fill="none" xmlns="http://www.w3.org/2000/svg">
    <path d="M198.4 216H57.6C48 216 40 208 40 198.4V69.2C40 59.6 46.4 51.6 54.8 51.6H63.6V63.2H54.8C53.6 63.2 52 65.6 52 69.2V198.4C52 201.6 54.8 204.4 58 204.4H198.8C202 204.4 204.8 201.6 204.8 198.4V69.2C204.8 65.6 202.8 63.2 202 63.2H193.2V51.6H202C210 51.6 216.8 59.6 216.8 69.2V198.4C216 208 208 216 198.4 216Z" fill="#3B82BF"/>
    <path d="M81.2 75.2C78 75.2 75.2 72.4 75.2 69.2V45.6C75.2 42.4 78 39.6 81.2 39.6C84.4 39.6 87.2 42.4 87.2 45.6V69.2C86.8 72.4 84.4 75.2 81.2 75.2ZM174.8 75.2C171.6 75.2 168.8 72.4 168.8 69.2V45.6C168.8 42.4 171.6 39.6 174.8 39.6C178 39.6 180.8 42.4 180.8 45.6V69.2C180.8 72.4 178 75.2 174.8 75.2ZM98.8 51.6H157.2V63.6H98.8V51.6ZM51.6 86.8H204.4V98.8H51.6V86.8ZM180.8 110.4H192.4V122H180.8V110.4ZM157.2 110.4H169.2V122H157.2V110.4ZM134 110.4H145.6V122H134V110.4ZM110.4 110.4H122V122H110.4V110.4ZM86.8 110.4H98.8V122H86.8V110.4ZM180.8 134H192.4V145.6H180.8V134ZM157.2 134H169.2V145.6H157.2V134ZM134 134H145.6V145.6H134V134ZM110.4 134H122V145.6H110.4V134ZM86.8 134H98.8V145.6H86.8V134ZM63.6 134H75.2V145.6H63.6V134ZM180.8 157.2H192.4V169.2H180.8V157.2ZM157.2 157.2H169.2V169.2H157.2V157.2ZM134 157.2H145.6V169.2H134V157.2ZM110.4 157.2H122V169.2H110.4V157.2ZM86.8 157.2H98.8V169.2H86.8V157.2ZM63.6 157.2H75.2V169.2H63.6V157.2ZM157.2 180.8H169.2V192.4H157.2V180.8ZM134 180.8H145.6V192.4H134V180.8ZM110.4 180.8H122V192.4H110.4V180.8ZM86.8 180.8H98.8V192.4H86.8V180.8ZM63.6 180.8H75.2V192.4H63.6V180.8Z" fill="#3B82BF"/>
    </svg>
    