<svg width="256" height="256" viewBox="0 0 256 256" fill="none" xmlns="http://www.w3.org/2000/svg">
    <path d="M239.198 127.021H217.006C216.563 127.021 216.204 127.379 216.204 127.821V229.2C216.204 229.642 216.563 230 217.006 230H239.198C239.641 230 240 229.642 240 229.2V127.821C240 127.379 239.641 127.021 239.198 127.021ZM38.9942 194.145H16.802C16.359 194.145 16 194.503 16 194.945V229.2C16 229.642 16.359 230 16.802 230H38.9942C39.4371 230 39.7962 229.642 39.7962 229.2V194.945C39.7962 194.503 39.4371 194.145 38.9942 194.145ZM79.2752 183.451H57.0827C56.64 183.451 56.2808 183.81 56.2808 184.251V229.2C56.2808 229.642 56.64 230 57.0827 230H79.2752C79.7181 230 80.0772 229.642 80.0772 229.2V184.251C80.0772 183.81 79.7181 183.451 79.2752 183.451ZM119.556 170.936H97.3637C96.9208 170.936 96.5617 171.294 96.5617 171.736V229.2C96.5617 229.642 96.9208 230 97.3637 230H119.556C119.999 230 120.358 229.642 120.358 229.2V171.736C120.358 171.294 119.999 170.936 119.556 170.936ZM159.837 153.704H137.644C137.202 153.704 136.842 154.062 136.842 154.504V229.2C136.842 229.642 137.202 230 137.644 230H159.837C160.28 230 160.639 229.642 160.639 229.2V154.504C160.639 154.062 160.28 153.704 159.837 153.704ZM200.118 137.027H177.925C177.483 137.027 177.123 137.385 177.123 137.827V229.2C177.123 229.642 177.483 230 177.925 230H200.118C200.561 230 200.92 229.642 200.92 229.2V137.827C200.92 137.385 200.561 137.027 200.118 137.027ZM28.7958 107.047H83.766C84.7133 107.047 85.4816 106.362 85.4816 105.518V87.4507C85.4816 73.0835 72.408 61.4365 56.281 61.4365H56.2808C40.1537 61.4365 27.0802 73.0835 27.0802 87.4507V105.518C27.0802 106.362 27.8484 107.047 28.7958 107.047ZM56.281 55.6455C64.4824 55.6455 71.131 49.0093 71.131 40.8228C71.131 32.6362 64.4824 26 56.281 26C48.0793 26 41.4307 32.6362 41.4307 40.8228C41.4307 49.0093 48.0793 55.6455 56.281 55.6455ZM237.131 74.0781C235.001 71.5352 231.207 71.1914 228.661 73.3242L200.147 97.1094H162.012C160.336 97.1094 158.727 97.7227 157.529 98.7891L122.405 129.391H76.707C75.1975 129.391 73.7076 129.902 72.4702 130.863L20.2838 172.172C17.6798 174.23 17.2452 178.004 19.3107 180.602C20.4972 182.094 22.2534 182.871 24.0252 182.871C25.335 182.871 26.6546 182.445 27.7588 181.57L78.5199 141.391H124.361C126.019 141.391 127.619 140.789 128.846 139.711L163.97 109.109H202.039C203.597 109.109 205.124 108.57 206.408 107.527L236.375 82.5273C238.924 80.4023 239.261 76.6172 237.131 74.0781Z" fill="#3B82BF"/>
    </svg>
    