<svg width="22" height="23" viewBox="0 0 22 23" fill="none" xmlns="http://www.w3.org/2000/svg">
<path d="M21.6346 9.29366L21.6037 9.21462L18.6092 1.39963C18.5483 1.24646 18.4404 1.11652 18.3011 1.02847C18.1616 0.941906 17.999 0.900216 17.8351 0.909025C17.6712 0.917834 17.514 0.976718 17.3846 1.07773C17.2567 1.18163 17.1639 1.32243 17.1188 1.48096L15.0969 7.66697H6.90963L4.88772 1.48096C4.84387 1.32157 4.75087 1.18006 4.62196 1.07658C4.4926 0.975572 4.33536 0.916688 4.17148 0.907879C4.00759 0.89907 3.84495 0.940761 3.70551 1.02732C3.56647 1.11573 3.45869 1.24555 3.39735 1.39848L0.397138 9.21004L0.367353 9.28908C-0.0637172 10.4154 -0.116926 11.6513 0.21575 12.8105C0.548425 13.9697 1.24895 14.9894 2.2117 15.7157L2.22201 15.7237L2.2495 15.7432L6.81111 19.1592L9.06787 20.8672L10.4425 21.9051C10.6033 22.0272 10.7997 22.0933 11.0016 22.0933C11.2035 22.0933 11.3998 22.0272 11.5606 21.9051L12.9353 20.8672L15.192 19.1592L19.7811 15.7225L19.7926 15.7134C20.7532 14.9869 21.4521 13.9684 21.7842 12.8107C22.1164 11.6531 22.0639 10.4189 21.6346 9.29366Z" fill="#3B82BF"/>
</svg>
