<svg width="261" height="123" viewBox="0 0 261 123" fill="none" xmlns="http://www.w3.org/2000/svg">
<path d="M9.20854 9.71053C42.8674 39.1118 143.209 112.75 252.124 112.75" stroke="#3B82BF" stroke-dasharray="22 22"/>
<circle cx="18" cy="18" r="17.5" fill="white" stroke="#3B82BF" stroke-dasharray="16 16"/>
<path d="M253.945 102.76C256.511 103.827 258.563 105.885 259.627 108.457L259.165 108.648C259.653 109.828 259.922 111.122 259.922 112.48C259.922 113.839 259.653 115.133 259.165 116.313L259.627 116.504C258.563 119.076 256.511 121.133 253.945 122.2L253.753 121.739C252.574 122.229 251.28 122.5 249.922 122.5C248.564 122.5 247.271 122.229 246.092 121.739L245.9 122.2C243.334 121.133 241.281 119.076 240.218 116.504L240.68 116.313C240.192 115.133 239.922 113.839 239.922 112.48C239.922 111.122 240.192 109.828 240.68 108.648L240.218 108.457C241.281 105.885 243.334 103.827 245.9 102.76L246.092 103.222C247.271 102.731 248.564 102.461 249.922 102.461C251.28 102.461 252.574 102.731 253.753 103.222L253.945 102.76Z" fill="white" stroke="#3B82BF" stroke-dasharray="9 9"/>
</svg>
