<svg width="64" height="26" viewBox="0 0 64 26" fill="none" xmlns="http://www.w3.org/2000/svg">
<path d="M43.0338 22.3861C42.0242 23.1231 40.8002 23.5073 39.5505 23.4795C37.6071 23.4795 35.7138 22.9795 34.6938 22.3195C34.8339 21.8895 35.0705 21.0628 35.1672 20.5895L37.4438 9.90282C37.6327 9.09299 37.7443 8.26706 37.7772 7.43614C37.783 7.12577 37.7517 6.81579 37.6839 6.51284L40.9905 5.49284C41.0631 5.82776 41.0945 6.17031 41.0838 6.51284C41.0723 7.25299 40.9931 7.99045 40.8472 8.71614L40.4439 10.6362C40.3327 11.1906 40.1823 11.7364 39.9938 12.2695C40.4075 11.7899 40.919 11.4044 41.4939 11.1388C42.0688 10.8732 42.6938 10.7336 43.3272 10.7295C45.5805 10.7295 46.5738 12.3195 46.5738 14.9495C46.5738 17.9328 45.3172 20.7795 43.0438 22.3861H43.0338ZM42.1572 13.3129C41.1872 13.3129 40.1571 14.1195 39.5271 15.2095L38.3439 20.6095C38.8085 20.9826 39.3956 21.1692 39.9905 21.1329C40.6772 21.1329 41.5305 20.4928 41.9905 19.7128C42.6572 18.5262 43.1272 15.8495 43.1272 14.8995C43.1272 13.8595 42.8205 13.3129 42.1805 13.3129H42.1572ZM52.7505 9.66615C52.2321 9.66261 51.7363 9.4536 51.372 9.08483C51.0077 8.71614 50.8045 8.21788 50.8072 7.69954C50.8093 7.43918 50.8628 7.18189 50.9646 6.94227C51.0663 6.70266 51.2143 6.48546 51.4 6.30311C51.5858 6.12075 51.8057 5.97681 52.0471 5.87953C52.2886 5.78225 52.5469 5.73353 52.8071 5.73617C53.0623 5.73834 53.3146 5.79093 53.5494 5.8909C53.7842 5.99087 53.9969 6.13625 54.1753 6.3187C54.3537 6.50116 54.4944 6.71706 54.5891 6.95403C54.6838 7.19099 54.7307 7.44431 54.7271 7.69954C54.7276 7.95788 54.677 8.21383 54.5784 8.4526C54.4797 8.69144 54.3348 8.90839 54.1521 9.09112C53.9694 9.27384 53.7525 9.41872 53.5137 9.51737C53.2748 9.61603 53.0189 9.66658 52.7605 9.66615H52.7505ZM51.0438 23.1729H47.8705L50.4038 11.2562L53.6739 10.7562L51.0438 23.1729ZM62.9905 11.0395L61.8539 13.2195H59.7438L58.4638 19.3095C58.3851 19.6585 58.346 20.0152 58.3472 20.3728C58.3472 21.0395 58.7005 21.2528 59.4105 21.2528C59.8162 21.2356 60.2167 21.1546 60.5972 21.0128V22.9329C59.735 23.2683 58.819 23.4446 57.8938 23.4529C56.0705 23.4529 55.0272 22.5528 55.0272 21.3695C55.0304 20.8441 55.0862 20.3204 55.1938 19.8062L56.5905 13.2195H55.3838L55.8571 11.0395H57.0672C57.2311 10.0651 57.4763 9.10621 57.8005 8.17281L61.1338 7.36616C60.7805 8.47954 60.4239 9.80619 60.1638 11.0328L62.9905 11.0395Z" fill="white"/>
<path d="M18.2676 2.30401C12.5609 4.96734 9.83086 8.15064 8.29091 11.0007C8.25754 11.1073 8.3242 11.2473 8.39755 11.174C10.0409 10.2673 11.5809 9.81067 12.6309 9.81067C15.1176 9.79731 17.3343 12.0007 17.3576 15.334C17.3576 18.7973 15.6909 21.634 12.5276 23.2107C11.3593 23.7817 10.081 24.0922 8.78091 24.1207C4.26423 24.1173 2.33423 20.8974 2.33423 17.3607C2.33423 9.93735 9.55092 3.60068 17.8842 1.22067C18.0576 1.28734 18.4076 2.16401 18.2676 2.30401ZM7.27424 13.334C6.78976 14.6699 6.54052 16.0796 6.53756 17.5007C6.53756 21.0007 7.83421 22.6673 9.7609 22.6673C11.8609 22.6673 13.3343 19.7406 13.3343 16.6674C13.3009 13.4806 12.0409 11.974 9.94089 11.974C9.23869 11.9958 8.5523 12.188 7.94092 12.534C7.64782 12.7354 7.41684 13.0149 7.27424 13.3407V13.334ZM34.2743 2.30401C28.5642 4.96401 25.8309 8.15064 24.2909 11.0007C24.2575 11.104 24.3242 11.244 24.3976 11.174C26.0409 10.264 27.5809 9.80735 28.6309 9.80735C31.1176 9.79398 33.3343 12.0007 33.3576 15.334C33.3576 18.8007 31.6909 21.6373 28.5276 23.214C27.359 23.7839 26.0807 24.0933 24.7809 24.1207C20.2642 24.114 18.3342 20.894 18.3342 17.3607C18.3342 9.93402 25.5509 3.59734 33.8842 1.21734C34.0609 1.28734 34.4109 2.16401 34.2709 2.30401H34.2743ZM23.2776 13.334C22.7913 14.6694 22.542 16.0795 22.5409 17.5007C22.5409 21.0007 23.8376 22.6673 25.7609 22.6673C27.8609 22.6673 29.3343 19.7406 29.3343 16.6674C29.2976 13.484 28.0376 11.9773 25.9376 11.9773C25.2354 11.9991 24.549 12.1913 23.9375 12.5373C23.6434 12.7375 23.4122 13.0173 23.2709 13.344L23.2776 13.334Z" fill="white"/>
</svg>
    