<svg width="91" height="37" viewBox="0 0 91 37" fill="none" xmlns="http://www.w3.org/2000/svg">
<path d="M61.1887 31.8572C59.7531 32.9059 58.0127 33.4527 56.2358 33.4131C53.4726 33.4131 50.7805 32.7016 49.3303 31.7623C49.5293 31.1504 49.8658 29.974 50.0033 29.3004L53.2404 14.0925C53.5089 12.94 53.6676 11.7646 53.7144 10.5822C53.7227 10.1405 53.6781 9.69937 53.5817 9.26825L58.2833 7.81671C58.3866 8.29332 58.4312 8.7808 58.416 9.26825C58.3996 10.3215 58.287 11.371 58.0796 12.4037L57.506 15.1361C57.348 15.9251 57.1342 16.7018 56.8662 17.4604C57.4543 16.7779 58.1816 16.2293 58.9991 15.8513C59.8165 15.4734 60.7053 15.2747 61.6058 15.2689C64.8098 15.2689 66.2221 17.5316 66.2221 21.2743C66.2221 25.5198 64.4353 29.5708 61.2029 31.8572H61.1887ZM59.9422 18.9452C58.563 18.9452 57.0984 20.0931 56.2026 21.6443L54.5201 29.3288C55.1808 29.8599 56.0156 30.1254 56.8615 30.0737C57.8378 30.0737 59.0511 29.1629 59.7052 28.0529C60.6531 26.3641 61.3214 22.5551 61.3214 21.2031C61.3214 19.7231 60.8853 18.9452 59.9753 18.9452H59.9422ZM75.0045 13.7557C74.2675 13.7506 73.5625 13.4532 73.0446 12.9284C72.5265 12.4037 72.2376 11.6947 72.2414 10.957C72.2445 10.5865 72.3205 10.2204 72.4652 9.87937C72.6098 9.53838 72.8202 9.22929 73.0843 8.96979C73.3485 8.71027 73.6612 8.50544 74.0044 8.367C74.3478 8.22856 74.7151 8.15924 75.0851 8.16299C75.448 8.16608 75.8067 8.24092 76.1405 8.38318C76.4743 8.52545 76.7768 8.73234 77.0305 8.99198C77.2841 9.25162 77.4841 9.55888 77.6188 9.8961C77.7534 10.2333 77.8201 10.5938 77.8151 10.957C77.8158 11.3247 77.7438 11.6889 77.6035 12.0287C77.4633 12.3686 77.2572 12.6773 76.9975 12.9373C76.7377 13.1974 76.4292 13.4035 76.0897 13.5439C75.7501 13.6843 75.3862 13.7563 75.0187 13.7557H75.0045ZM72.5779 32.9767H68.0658L71.6679 16.0184L76.3175 15.3069L72.5779 32.9767ZM89.5645 15.7101L87.9484 18.8123H84.9482L83.1282 27.4789C83.0163 27.9755 82.9607 28.4831 82.9623 28.992C82.9623 29.9408 83.4648 30.2444 84.4743 30.2444C85.0511 30.2198 85.6205 30.1046 86.1615 29.9029V32.6352C84.9356 33.1126 83.6332 33.3634 82.3178 33.3752C79.7252 33.3752 78.2417 32.0944 78.2417 30.4104C78.2463 29.6628 78.3256 28.9174 78.4787 28.1857L80.4645 18.8123H78.7488L79.4218 15.7101H81.1423C81.3753 14.3234 81.7241 12.9588 82.185 11.6305L86.9246 10.4826C86.4223 12.067 85.9151 13.9549 85.5454 15.7005L89.5645 15.7101Z" fill="#3474AA"/>
<path d="M25.9743 3.27877C17.8601 7.06889 13.9783 11.599 11.7887 15.6548C11.7412 15.8066 11.836 16.0058 11.9403 15.9015C14.277 14.6112 16.4666 13.9613 17.9596 13.9613C21.4953 13.9423 24.6472 17.0779 24.6803 21.8215C24.6803 26.7501 22.3105 30.7869 17.8127 33.0306C16.1516 33.8432 14.3339 34.285 12.4854 34.3256C6.06325 34.3208 3.31903 29.7385 3.31903 24.7056C3.31903 14.1416 13.5803 5.12403 25.4292 1.7371C25.6757 1.83197 26.1733 3.07954 25.9743 3.27877ZM10.3431 18.9753C9.65425 20.8764 9.29986 22.8825 9.29564 24.9048C9.29564 29.8856 11.1393 32.2573 13.8788 32.2573C16.8647 32.2573 18.9597 28.0924 18.9597 23.7189C18.9122 19.184 17.1207 17.0399 14.1347 17.0399C13.1363 17.071 12.1604 17.3445 11.291 17.8369C10.8743 18.1235 10.5459 18.5212 10.3431 18.9848V18.9753ZM48.7338 3.27877C40.6148 7.06415 36.7284 11.599 34.5387 15.6548C34.4912 15.8019 34.586 16.0011 34.6903 15.9015C37.027 14.6065 39.2166 13.9566 40.7096 13.9566C44.2453 13.9376 47.3972 17.0779 47.4303 21.8215C47.4303 26.7548 45.0605 30.7916 40.5627 33.0353C38.9012 33.8463 37.0835 34.2866 35.2354 34.3256C28.8133 34.3161 26.069 29.7338 26.069 24.7056C26.069 14.1369 36.3303 5.11928 48.1792 1.73236C48.4304 1.83197 48.928 3.07954 48.729 3.27877H48.7338ZM33.0978 18.9753C32.4064 20.8757 32.0519 22.8823 32.0504 24.9048C32.0504 29.8856 33.8941 32.2573 36.6288 32.2573C39.6147 32.2573 41.7097 28.0924 41.7097 23.7189C41.6575 19.1888 39.866 17.0447 36.88 17.0447C35.8816 17.0757 34.9057 17.3492 34.0362 17.8416C33.618 18.1265 33.2892 18.5247 33.0883 18.9895L33.0978 18.9753Z" fill="#3474AA"/>
</svg>
