<svg width="256" height="256" viewBox="0 0 256 256" fill="none" xmlns="http://www.w3.org/2000/svg">
    <path d="M236 148C234.634 148.013 233.281 148.262 232 148.736V52C231.994 46.6976 229.884 41.6142 226.135 37.8649C222.386 34.1155 217.302 32.0064 212 32H28C22.6976 32.0064 17.6142 34.1155 13.8649 37.8649C10.1155 41.6142 8.00635 46.6976 8 52V180C8.00635 185.302 10.1155 190.386 13.8649 194.135C17.6142 197.884 22.6976 199.994 28 200H91.468L88.468 224H84C80.8174 224 77.7652 225.264 75.5147 227.515C73.2643 229.765 72 232.817 72 236C72 239.183 73.2643 242.235 75.5147 244.485C77.7652 246.736 80.8174 248 84 248H156C159.183 248 162.235 246.736 164.485 244.485C166.736 242.235 168 239.183 168 236C168 232.817 166.736 229.765 164.485 227.515C162.235 225.264 159.183 224 156 224H151.532L148.532 200H160V204C160 204.909 160.309 205.79 160.876 206.5L176 225.404V244C176 245.061 176.421 246.078 177.172 246.828C177.922 247.579 178.939 248 180 248H236C237.061 248 238.078 247.579 238.828 246.828C239.579 246.078 240 245.061 240 244V224.768L247.716 205.488C247.903 205.014 248 204.509 248 204V160C248 156.817 246.736 153.765 244.485 151.515C242.235 149.264 239.183 148 236 148ZM28 40H212C215.183 40 218.235 41.2643 220.485 43.5147C222.736 45.7652 224 48.8174 224 52V144.736C222.393 144.13 220.67 143.894 218.959 144.044C217.248 144.194 215.593 144.727 214.116 145.604C212.691 143.284 210.504 141.53 207.93 140.642C205.355 139.754 202.553 139.788 200 140.736V124.836C200.558 124.738 201.087 124.519 201.552 124.196C202.234 123.7 202.742 123 203.003 122.198C203.264 121.395 203.264 120.531 203.004 119.728L199.692 109.516C199.539 108.652 199.27 107.812 198.892 107.02L198.092 104.58L210.988 95.24C211.673 94.7442 212.183 94.0441 212.445 93.2403C212.707 92.4365 212.708 91.5703 212.447 90.766C212.186 89.9618 211.677 89.2609 210.993 88.7639C210.309 88.267 209.485 87.9995 208.64 88H192.708L187.804 72.884C187.541 72.0837 187.032 71.3869 186.35 70.8929C185.667 70.399 184.846 70.133 184.004 70.133C183.162 70.133 182.341 70.399 181.658 70.8929C180.976 71.3869 180.467 72.0837 180.204 72.884L175.292 88H159.36C158.515 87.9995 157.691 88.267 157.007 88.7639C156.323 89.2609 155.814 89.9618 155.553 90.766C155.292 91.5703 155.293 92.4365 155.555 93.2403C155.817 94.0441 156.327 94.7442 157.012 95.24L169.904 104.576L164.996 119.728C164.736 120.532 164.738 121.397 165 122.199C165.262 123.002 165.771 123.701 166.455 124.197C167.139 124.692 167.962 124.959 168.806 124.958C169.651 124.957 170.473 124.689 171.156 124.192L176 120.664V148.736C174.719 148.262 173.366 148.013 172 148C168.817 148 165.765 149.264 163.515 151.515C161.264 153.765 160 156.817 160 160H16V52C16 48.8174 17.2643 45.7652 19.5147 43.5147C21.7652 41.2643 24.8174 40 28 40ZM178.088 105.248L178.408 104.272C178.668 103.468 178.667 102.602 178.405 101.799C178.143 100.995 177.633 100.296 176.948 99.8L171.704 96H178.2C179.045 95.9999 179.868 95.7325 180.551 95.236C181.234 94.7395 181.743 94.0393 182.004 93.236L184.004 87.084L186.004 93.236C186.265 94.0381 186.772 94.7372 187.454 95.2336C188.135 95.73 188.957 95.9983 189.8 96H196.296L191.052 99.8C190.873 99.9473 190.709 100.111 190.56 100.288C188.223 99.7645 185.783 99.9577 183.558 100.843C181.333 101.727 179.427 103.263 178.088 105.248ZM160 236C160 237.061 159.579 238.078 158.828 238.828C158.078 239.579 157.061 240 156 240H84C82.9391 240 81.9217 239.579 81.1716 238.828C80.4214 238.078 80 237.061 80 236C80 234.939 80.4214 233.922 81.1716 233.172C81.9217 232.421 82.9391 232 84 232H156C157.061 232 158.078 232.421 158.828 233.172C159.579 233.922 160 234.939 160 236ZM143.468 224H96.532L99.532 200H140.468L143.468 224ZM28 192C24.8174 192 21.7652 190.736 19.5147 188.485C17.2643 186.235 16 183.183 16 180V168H160V192H28ZM240 203.232L232.284 222.512C232.097 222.986 232 223.491 232 224V240H184V224C184 223.091 183.691 222.21 183.124 221.5L168 202.596V160C168 158.939 168.421 157.922 169.172 157.172C169.922 156.421 170.939 156 172 156C173.061 156 174.078 156.421 174.828 157.172C175.579 157.922 176 158.939 176 160V184H184V112C184 110.939 184.421 109.922 185.172 109.172C185.922 108.421 186.939 108 188 108C188.522 107.997 189.039 108.1 189.52 108.302C190.001 108.504 190.437 108.801 190.8 109.176C191.131 109.515 191.402 109.909 191.6 110.34C191.791 110.714 191.906 111.122 191.94 111.54C191.974 111.691 191.994 111.845 192 112V168H200V152C200 150.939 200.421 149.922 201.172 149.172C201.922 148.421 202.939 148 204 148C205.061 148 206.078 148.421 206.828 149.172C207.579 149.922 208 150.939 208 152V168H216V156C216 154.939 216.421 153.922 217.172 153.172C217.922 152.421 218.939 152 220 152C221.061 152 222.078 152.421 222.828 153.172C223.579 153.922 224 154.939 224 156V168H232V160C232 158.939 232.421 157.922 233.172 157.172C233.922 156.421 234.939 156 236 156C237.061 156 238.078 156.421 238.828 157.172C239.579 157.922 240 158.939 240 160V203.232Z" fill="#3B82BF"/>
    <path d="M105.892 104.584L100.976 119.708C100.715 120.511 100.715 121.377 100.976 122.18C101.237 122.984 101.746 123.684 102.429 124.181C103.113 124.677 103.936 124.945 104.781 124.944C105.626 124.944 106.449 124.677 107.132 124.18L120 114.832L132.868 124.18C133.551 124.677 134.374 124.944 135.219 124.944C136.064 124.945 136.887 124.677 137.571 124.181C138.254 123.684 138.763 122.984 139.024 122.18C139.285 121.377 139.285 120.511 139.024 119.708L134.108 104.584L146.972 95.236C147.655 94.7394 148.164 94.0392 148.425 93.2358C148.686 92.4324 148.686 91.5669 148.425 90.7635C148.164 89.9601 147.655 89.26 146.971 88.7636C146.288 88.2671 145.465 87.9998 144.62 88H128.72L123.804 72.876C123.541 72.0757 123.032 71.3789 122.35 70.8849C121.667 70.391 120.846 70.125 120.004 70.125C119.162 70.125 118.341 70.391 117.658 70.8849C116.976 71.3789 116.467 72.0757 116.204 72.876L111.28 88H95.38C94.5352 87.9998 93.7121 88.2671 93.0286 88.7636C92.3451 89.26 91.8363 89.9601 91.5751 90.7635C91.314 91.5669 91.3139 92.4324 91.5749 93.2358C91.8359 94.0392 92.3446 94.7394 93.028 95.236L105.892 104.584ZM114.188 96C115.033 95.9999 115.856 95.7325 116.539 95.236C117.222 94.7395 117.731 94.0393 117.992 93.236L119.992 87.056L121.992 93.236C122.253 94.0393 122.762 94.7395 123.445 95.236C124.128 95.7325 124.951 95.9999 125.796 96H132.296L127.04 99.82C126.356 100.316 125.847 101.016 125.585 101.819C125.324 102.623 125.323 103.488 125.584 104.292L127.584 110.472L122.328 106.652C121.644 106.155 120.821 105.887 119.976 105.887C119.131 105.887 118.308 106.155 117.624 106.652L112.368 110.472L114.368 104.292C114.629 103.488 114.628 102.623 114.367 101.819C114.105 101.016 113.596 100.316 112.912 99.82L107.688 96H114.188ZM41.892 104.584L36.976 119.708C36.7149 120.511 36.7148 121.377 36.9758 122.18C37.2369 122.984 37.7456 123.684 38.4292 124.181C39.1127 124.677 39.9359 124.945 40.7807 124.944C41.6255 124.944 42.4486 124.677 43.132 124.18L56 114.832L68.868 124.18C69.5514 124.677 70.3745 124.944 71.2193 124.944C72.0642 124.945 72.8873 124.677 73.5709 124.181C74.2544 123.684 74.7631 122.984 75.0242 122.18C75.2852 121.377 75.2852 120.511 75.024 119.708L70.108 104.584L82.972 95.236C83.6554 94.7394 84.1641 94.0392 84.4251 93.2358C84.6861 92.4324 84.686 91.5669 84.4249 90.7635C84.1637 89.9601 83.6549 89.26 82.9714 88.7636C82.2879 88.2671 81.4648 87.9998 80.62 88H64.72L59.804 72.876C59.541 72.0757 59.032 71.3789 58.3496 70.8849C57.6673 70.391 56.8464 70.125 56.004 70.125C55.1616 70.125 54.3407 70.391 53.6584 70.8849C52.976 71.3789 52.467 72.0757 52.204 72.876L47.28 88H31.38C30.5352 87.9998 29.7121 88.2671 29.0286 88.7636C28.3451 89.26 27.8363 89.9601 27.5752 90.7635C27.314 91.5669 27.3139 92.4324 27.5749 93.2358C27.8359 94.0392 28.3446 94.7394 29.028 95.236L41.892 104.584ZM50.188 96C51.0327 95.9999 51.8557 95.7325 52.539 95.236C53.2224 94.7395 53.731 94.0393 53.992 93.236L55.992 87.056L57.992 93.236C58.253 94.0393 58.7616 94.7395 59.445 95.236C60.1283 95.7325 60.9513 95.9999 61.796 96H68.296L63.04 99.82C62.3561 100.316 61.8469 101.016 61.5853 101.819C61.3238 102.623 61.3233 103.488 61.584 104.292L63.584 110.472L58.328 106.652C57.6445 106.155 56.8211 105.887 55.976 105.887C55.1309 105.887 54.3076 106.155 53.624 106.652L48.368 110.472L50.368 104.292C50.6287 103.488 50.6282 102.623 50.3667 101.819C50.1051 101.016 49.5959 100.316 48.912 99.82L43.688 96H50.188Z" fill="#3B82BF"/>
    </svg>
    